<?xml version="1.0" standalone="no"?>
<!DOCTYPE svg PUBLIC "-//W3C//DTD SVG 20010904//EN"
 "http://www.w3.org/TR/2001/REC-SVG-20010904/DTD/svg10.dtd">
<svg version="1.0" xmlns="http://www.w3.org/2000/svg"
 width="640.000000pt" height="640.000000pt" viewBox="0 0 640.000000 640.000000"
 preserveAspectRatio="xMidYMid meet">
<metadata>
Created by potrace 1.11, written by Peter Selinger 2001-2013
</metadata>
<g transform="translate(0.000000,640.000000) scale(0.100000,-0.100000)"
fill="#000000" stroke="none">
<path d="M4171 4644 c-56 -59 -184 -133 -306 -177 -165 -59 -185 -60 -855 -62
-338 -1 -635 -5 -660 -9 -62 -10 -146 -34 -200 -58 -181 -83 -321 -301 -346
-542 l-6 -59 54 45 c60 50 97 74 183 116 62 30 169 68 218 76 15 3 35 7 45 10
56 17 419 29 428 14 2 -3 -70 -305 -161 -670 -182 -731 -196 -772 -283 -849
-47 -41 -115 -76 -167 -87 -45 -9 -216 -5 -226 5 -5 5 5 10 24 11 163 11 268
214 194 376 -13 28 -35 63 -48 77 -70 76 -205 96 -309 48 -104 -49 -143 -111
-146 -232 -6 -278 159 -457 479 -522 82 -16 211 -22 262 -11 17 3 42 7 56 10
66 11 172 56 257 110 96 60 200 191 243 305 11 31 59 209 105 396 47 187 88
347 93 355 7 12 39 15 188 15 l180 1 -28 -106 c-16 -58 -31 -114 -34 -125 -4
-19 -42 -163 -100 -380 -14 -55 -28 -107 -30 -115 -2 -8 -15 -60 -29 -115 -15
-55 -28 -107 -30 -115 -2 -8 -19 -69 -37 -135 -29 -105 -33 -135 -33 -240 0
-132 18 -197 75 -281 74 -109 230 -199 405 -234 81 -17 221 -21 275 -9 24 6
53 12 63 15 11 2 52 19 90 37 178 85 277 248 278 458 0 123 -41 197 -136 246
-43 23 -63 27 -136 27 -93 0 -126 -12 -181 -65 -53 -51 -74 -112 -73 -209 0
-102 27 -173 82 -221 l36 -31 -54 6 c-30 4 -59 11 -65 16 -7 5 -14 8 -16 6 -7
-7 -81 48 -102 76 -44 59 -40 80 127 754 87 346 164 654 172 684 l15 56 162 0
c177 1 226 7 302 33 180 63 300 232 331 463 l5 38 -43 -29 c-46 -30 -146 -67
-213 -77 -22 -3 -43 -8 -46 -9 -18 -12 -261 -18 -744 -18 l-550 0 3 24 c2 13
12 58 23 99 11 41 22 83 24 93 13 55 0 52 207 53 291 1 401 37 538 174 85 84
134 171 169 300 19 68 38 190 30 190 -2 0 -15 -12 -28 -26z"/>
</g>
</svg>
